<svg width="36" height="37" viewBox="0 0 36 37" fill="none" xmlns="http://www.w3.org/2000/svg">
<g id="box">
<path id="Vector" d="M31.5 24.5V12.5C31.4995 11.9739 31.3606 11.4572 31.0973 11.0018C30.834 10.5463 30.4556 10.1681 30 9.90501L19.5 3.90501C19.0439 3.6417 18.5266 3.50308 18 3.50308C17.4734 3.50308 16.9561 3.6417 16.5 3.90501L6 9.90501C5.54439 10.1681 5.16597 10.5463 4.90269 11.0018C4.63941 11.4572 4.50054 11.9739 4.5 12.5V24.5C4.50054 25.0261 4.63941 25.5428 4.90269 25.9983C5.16597 26.4537 5.54439 26.832 6 27.095L16.5 33.095C16.9561 33.3583 17.4734 33.4969 18 33.4969C18.5266 33.4969 19.0439 33.3583 19.5 33.095L30 27.095C30.4556 26.832 30.834 26.4537 31.0973 25.9983C31.3606 25.5428 31.4995 25.0261 31.5 24.5Z" stroke="#5CE0E6" stroke-width="2" stroke-linecap="round" stroke-linejoin="round"/>
<path id="Vector_2" d="M4.90503 10.94L18 18.515L31.095 10.94" stroke="#5CE0E6" stroke-width="2" stroke-linecap="round" stroke-linejoin="round"/>
<path id="Vector_3" d="M18 33.62V18.5" stroke="#5CE0E6" stroke-width="2" stroke-linecap="round" stroke-linejoin="round"/>
</g>
</svg>
