<svg width="105" height="102" viewBox="0 0 105 102" fill="none" xmlns="http://www.w3.org/2000/svg">
<g id="Group">
<path id="Vector" d="M39.6498 74.0466H25.4491C24.0763 74.0466 22.9634 75.1596 22.9634 76.5324C22.9634 77.9051 24.0763 79.0181 25.4491 79.0181H39.6498C41.0226 79.0181 42.1355 77.9051 42.1355 76.5324C42.1348 75.1596 41.0226 74.0466 39.6498 74.0466Z" fill="#5CE0E6"/>
<path id="Vector_2" d="M76.3784 45C72.2532 45 68.3317 45.8868 64.7945 47.4796L64.7937 10.3507C64.7937 4.64337 60.1503 0 54.443 0H10.6661C4.95356 0 0.304688 4.64337 0.304688 10.3507V79.4361C0.304688 85.1495 4.95336 89.7976 10.6661 89.7976H53.3658C58.5089 96.9589 66.9082 101.632 76.3786 101.632C91.9927 101.632 104.695 88.9299 104.695 73.3174C104.695 57.7033 91.9931 45.0007 76.3805 45.0007L76.3784 45ZM46.0348 4.97087L43.989 8.20851C43.6778 8.70136 43.1435 8.99493 42.561 8.99493H22.5406C21.958 8.99493 21.4238 8.7006 21.1126 8.20851L19.0668 4.97087H46.0348ZM10.6659 84.8269C7.69357 84.8269 5.27514 82.4087 5.27514 79.4361V10.3507C5.27514 7.38438 7.69337 4.97067 10.6659 4.97067H13.187L16.9112 10.8642C18.1384 12.8057 20.2431 13.9654 22.541 13.9654H42.5614C44.8594 13.9654 46.9643 12.8057 48.1912 10.8642L51.9155 4.97067H54.4442C57.4105 4.97067 59.8242 7.3836 59.8242 10.3507V50.3562C52.7051 55.5039 48.0631 63.8778 48.0631 73.316C48.0631 77.4121 48.9376 81.3075 50.5098 84.8263L10.6659 84.8269ZM76.3784 96.6614C63.5059 96.6614 53.034 86.1889 53.034 73.317C53.034 60.4445 63.5065 49.9726 76.3784 49.9726C89.2509 49.9726 99.7228 60.4451 99.7228 73.317C99.7228 86.1895 89.2503 96.6614 76.3784 96.6614Z" fill="#5CE0E6"/>
<path id="Vector_3" d="M96.4224 42.0292C97.0647 42.4415 97.7047 42.8815 98.3248 43.3352C98.7678 43.6602 99.2821 43.8166 99.7919 43.8166C100.557 43.8166 101.312 43.4648 101.799 42.8002C102.61 41.6934 102.371 40.1383 101.264 39.3265C100.561 38.8122 99.8372 38.314 99.1097 37.8464C97.9546 37.1052 96.4161 37.4394 95.675 38.5938C94.9331 39.7489 95.268 41.2865 96.4223 42.0292L96.4224 42.0292Z" fill="#5CE0E6"/>
<path id="Vector_4" d="M73.4154 36.2798C78.6421 35.8689 83.8955 36.5527 88.7926 38.2871C89.067 38.3845 89.3468 38.4305 89.6227 38.4305C90.646 38.4305 91.6042 37.7943 91.9652 36.7749C92.4236 35.481 91.7468 34.0607 90.4529 33.6024C84.8989 31.6341 78.9487 30.8576 73.0254 31.3244C71.6572 31.4325 70.6354 32.629 70.7427 33.9979C70.85 35.3646 72.0427 36.3726 73.4155 36.2798L73.4154 36.2798Z" fill="#5CE0E6"/>
<path id="Vector_5" d="M88.9346 70.8304H78.8622V60.7579C78.8622 59.3852 77.7492 58.2722 76.3765 58.2722C75.0037 58.2722 73.8907 59.3852 73.8907 60.7579V70.8304H63.8191C62.4463 70.8304 61.3334 71.9433 61.3334 73.3161C61.3334 74.6889 62.4463 75.8018 63.8191 75.8018H73.8907L73.8915 85.8734C73.8915 87.2462 75.0044 88.3592 76.3772 88.3592C77.75 88.3592 78.863 87.2462 78.863 85.8734V75.801H88.9354C90.3082 75.801 91.4211 74.6881 91.4211 73.3153C91.4203 71.9433 90.3074 70.8304 88.9346 70.8304H88.9346Z" fill="#5CE0E6"/>
<path id="Vector_6" d="M39.8224 44.9293C41.445 43.1671 42.4384 40.8163 42.4384 38.2371C42.4384 32.7851 38.0028 28.3494 32.5506 28.3494C27.0984 28.3494 22.6628 32.7849 22.6628 38.2371C22.6628 40.8157 23.6554 43.1664 25.2781 44.9287C20.2124 47.5655 16.744 52.8648 16.744 58.96C16.744 60.3328 17.857 61.4458 19.2297 61.4458C20.6025 61.4458 21.7155 60.3328 21.7155 58.96C21.7155 52.9853 26.5759 48.1249 32.5506 48.1249C38.5253 48.1249 43.3857 52.9853 43.3857 58.96C43.3857 60.3328 44.4987 61.4458 45.8715 61.4458C47.2442 61.4458 48.3572 60.3328 48.3572 58.96C48.3564 52.8656 44.888 47.5663 39.8224 44.9295V44.9293ZM32.55 43.1548C29.839 43.1548 27.6337 40.9497 27.6337 38.2377C27.6337 35.526 29.8388 33.3206 32.55 33.3206C35.2618 33.3206 37.4671 35.5258 37.4671 38.2377C37.4671 40.9487 35.262 43.1548 32.55 43.1548Z" fill="#5CE0E6"/>
</g>
</svg>
